<?xml version="1.0" encoding="utf-8"?>
<!-- Uploaded to: SVG Repo, www.svgrepo.com, Generator: SVG Repo Mixer Tools -->
<svg fill="#000000" height="800px" width="800px" version="1.1" id="Layer_1" xmlns="http://www.w3.org/2000/svg" xmlns:xlink="http://www.w3.org/1999/xlink" 
	 viewBox="0 0 64 64" enable-background="new 0 0 64 64" xml:space="preserve">
<path id="Support-headset" d="M54.760498,24.5671501C54.874897,21.6040497,54.6776962,12.86975,49.0356979,6.60605
	C45.105999,2.2434499,39.3744965,0.03185,31.9995003,0.03185S18.8925991,2.2439499,14.9633999,6.60605
	C9.3218002,12.86975,9.125,21.6040497,9.2395,24.5671501C6.2749,25.0434494,4,27.6182499,4,30.7228508v8.7315979
	c0,3.441803,2.7930002,6.2418022,6.2256002,6.2418022c3.4330997,0,6.2261-2.7999992,6.2261-6.2418022v-8.7315979
	c0-3.0923004-2.2568998-5.6594009-5.2046003-6.1504002c-0.0935001-2.6002998,0.0531998-10.9173002,5.2099009-16.6329002
	c3.533699-3.9166999,8.7631989-5.9025998,15.5424995-5.9025998S44.0077972,4.02285,47.5419998,7.9395499
	c5.1570015,5.7156005,5.3041954,14.0320988,5.2108955,16.6329002c-2.9476967,0.4909992-5.2045975,3.0580997-5.2045975,6.1504002
	v8.7315979c0,3.1777,2.3825989,5.8030014,5.4497986,6.1879997c0.0191002,1.5082016-0.2238998,5.5086021-3.0556984,8.6611023
	c-2.4518013,2.7298012-6.2821999,4.1781006-11.3610992,4.3449974c-0.1156998-2.7124977-2.3362007-4.8878975-5.0695992-4.8878975
	c-2.8071003,0-5.0907993,2.2895012-5.0907993,5.1037979c0,2.8142014,2.283699,5.1037025,5.0907993,5.1037025
	c2.1734009,0,4.0190964-1.3787003,4.7480965-3.3045006c5.8358994-0.1197014,10.2741013-1.7952995,13.1688995-5.0182991
	c3.3233032-3.6998024,3.601902-8.285202,3.5704994-10.071701C57.8471985,45.0014496,60,42.47575,60,39.4544487v-8.7315979
	C60,27.6182499,57.7250977,25.0434494,54.760498,24.5671501z M14.4517002,30.7228508v8.7315979
	c0,2.3360023-1.8959999,4.2368011-4.2261,4.2368011S6,41.790451,6,39.4544487v-8.7315979
	c0-2.3360004,1.8955002-4.2368011,4.2256002-4.2368011S14.4517002,28.3868504,14.4517002,30.7228508z M33.5116997,61.9630508
	c-1.7040997,0-3.0907993-1.3902016-3.0907993-3.0986023c0-1.7084999,1.3866997-3.0986977,3.0907993-3.0986977
	c1.7046013,0,3.091301,1.3901978,3.091301,3.0986977C36.6030006,60.5728493,35.216301,61.9630508,33.5116997,61.9630508z
	 M58,39.4544487c0,2.3360023-1.895504,4.2368011-4.2256012,4.2368011c-2.330101,0-4.2261009-1.9007988-4.2261009-4.2368011
	v-8.7315979c0-2.3360004,1.8959999-4.2368011,4.2261009-4.2368011C56.104496,26.4860497,58,28.3868504,58,30.7228508V39.4544487z"/>
</svg>